HIERARCHY
ROOT Hips
{
	OFFSET -0.001795 -0.223333 0.028219
	CHANNELS 6 Xposition Yposition Zposition Zrotation Yrotation Xrotation 
	JOINT LeftUpLeg
	{
		OFFSET 0.069520 -0.091406 -0.006815
		CHANNELS 3 Zrotation Yrotation Xrotation
		JOINT LeftLeg
		{
			OFFSET 0.034277 -0.375199 -0.004496
			CHANNELS 3 Zrotation Yrotation Xrotation
			JOINT LeftFoot
			{
				OFFSET -0.013596 -0.397961 -0.043693
				CHANNELS 3 Zrotation Yrotation Xrotation
				JOINT LeftToe
				{
					OFFSET 0.026358 -0.055791 0.119288
					CHANNELS 3 Zrotation Yrotation Xrotation
					End Site
					{
						OFFSET 0.000000 0.000000 0.000000
					}
				}
			}
		}
	}
	JOINT RightUpLeg
	{
		OFFSET -0.067670 -0.090522 -0.004320
		CHANNELS 3 Zrotation Yrotation Xrotation
		JOINT RightLeg
		{
			OFFSET -0.038290 -0.382569 -0.008850
			CHANNELS 3 Zrotation Yrotation Xrotation
			JOINT RightFoot
			{
				OFFSET 0.015774 -0.398415 -0.042312
				CHANNELS 3 Zrotation Yrotation Xrotation
				JOINT RightToe
				{
					OFFSET -0.025372 -0.048144 0.123348
					CHANNELS 3 Zrotation Yrotation Xrotation
					End Site
					{
						OFFSET 0.000000 0.000000 0.000000
					}
				}
			}
		}
	}
	JOINT Spine
	{
		OFFSET -0.002533 0.108963 -0.026696
		CHANNELS 3 Zrotation Yrotation Xrotation
		JOINT Spine1
		{
			OFFSET 0.005487 0.135180 0.001092
			CHANNELS 3 Zrotation Yrotation Xrotation
			JOINT Spine2
			{
				OFFSET 0.001457 0.052922 0.025425
				CHANNELS 3 Zrotation Yrotation Xrotation
				JOINT Neck
				{
					OFFSET -0.002778 0.213870 -0.042857
					CHANNELS 3 Zrotation Yrotation Xrotation
					JOINT Head
					{
						OFFSET 0.005152 0.064970 0.051349
						CHANNELS 3 Zrotation Yrotation Xrotation
						End Site
						{
							OFFSET 0.000000 0.000000 0.000000
						}
					}
				}
				JOINT LeftShoulder
				{
					OFFSET 0.078845 0.121749 -0.034090
					CHANNELS 3 Zrotation Yrotation Xrotation
					JOINT LeftArm
					{
						OFFSET 0.090977 0.030469 -0.008868
						CHANNELS 3 Zrotation Yrotation Xrotation
						JOINT LeftForeArm
						{
							OFFSET 0.259612 -0.012772 -0.027456
							CHANNELS 3 Zrotation Yrotation Xrotation
							JOINT LeftHand
							{
								OFFSET 0.249234 0.008986 -0.001171
								CHANNELS 3 Zrotation Yrotation Xrotation
								End Site
								{
									OFFSET 0.000000 0.000000 0.000000
								}
							}
						}
					}
				}
				JOINT RightShoulder
				{
					OFFSET -0.081759 0.118833 -0.038615
					CHANNELS 3 Zrotation Yrotation Xrotation
					JOINT RightArm
					{
						OFFSET -0.096012 0.032551 -0.009143
						CHANNELS 3 Zrotation Yrotation Xrotation
						JOINT RightForeArm
						{
							OFFSET -0.253742 -0.013329 -0.021401
							CHANNELS 3 Zrotation Yrotation Xrotation
							JOINT RightHand
							{
								OFFSET -0.255298 0.007772 -0.005559
								CHANNELS 3 Zrotation Yrotation Xrotation
								End Site
								{
									OFFSET 0.000000 0.000000 0.000000
								}
							}
						}
					}
				}
			}
		}
	}
}
MOTION
Frames: 13
Frame Time: 0.050000
0.498279 0.941549 2.879617 175.658601 7.218169 175.063789 8.271071 -9.125899 -19.380791 -8.143182 -9.760191 10.919365 49.340153 -48.779784 45.700434 0.000000 0.000000 0.000000 3.731278 -7.746714 9.760799 -3.055736 -6.375361 1.106806 82.868243 -6.676075 -29.690763 0.000000 0.000000 0.000000 1.681273 -1.968644 12.042848 -1.933459 -5.732451 -14.233776 1.611100 9.998138 28.786595 -1.396688 -25.398824 -22.202180 0.000000 0.000000 0.000000 29.794250 13.514978 -149.324715 99.944016 -2.158839 -1.496784 18.029387 44.524928 -1.809229 0.000000 0.000000 0.000000 3.437084 -37.211170 62.932670 42.555984 48.716399 34.922557 -33.620755 14.304334 -1.159812 0.000000 0.000000 0.000000 
0.499277 0.941089 2.878303 175.330685 7.288419 175.578556 8.968831 -9.828933 -20.467091 -8.813887 -10.030579 10.443898 45.691213 -48.723686 50.086245 0.000000 0.000000 0.000000 3.190450 -7.661070 9.139592 -2.666258 -6.717985 1.370202 84.020401 -6.341566 -28.963076 0.000000 0.000000 0.000000 1.632624 -1.728610 11.468977 -2.832896 -6.251251 -13.758874 2.034038 10.708987 28.078161 -3.984113 -28.480705 -20.001853 0.000000 0.000000 0.000000 29.443167 13.434717 -152.033089 100.045502 -3.753100 -2.614788 15.651240 43.478742 -2.803866 0.000000 0.000000 0.000000 3.500976 -37.666465 65.197874 43.197559 52.102281 37.645881 -32.480511 11.774284 -1.035175 0.000000 0.000000 0.000000 
0.499800 0.941057 2.877022 175.224893 5.983346 176.301688 9.420971 -10.775379 -22.019717 -9.617019 -10.635105 10.511522 45.124924 -50.217730 51.567347 0.000000 0.000000 0.000000 3.452806 -7.272507 8.340711 -2.981357 -6.649640 1.463237 84.818275 -5.865302 -31.055903 0.000000 0.000000 0.000000 1.455414 -1.593345 11.158688 -2.830376 -6.296339 -14.040589 2.211624 10.710388 27.559665 -5.893302 -31.394077 -18.911086 0.000000 0.000000 0.000000 29.264363 16.015931 -162.014852 99.939904 -12.941679 -12.127346 21.486581 38.642454 -0.830188 0.000000 0.000000 0.000000 1.736103 -38.898101 71.947642 42.945934 57.657275 42.577479 -33.291313 7.638129 -0.335854 0.000000 0.000000 0.000000 
0.499904 0.940950 2.875392 174.972283 5.479919 176.877081 9.615958 -11.303490 -22.935537 -9.788851 -10.809399 9.662536 43.252664 -49.974598 53.042749 0.000000 0.000000 0.000000 3.169743 -7.156161 7.635341 -2.934076 -6.800604 1.638148 85.582035 -5.914280 -31.236739 0.000000 0.000000 0.000000 1.208422 -1.492233 10.951516 -3.278086 -6.442569 -14.179145 2.557277 11.642838 27.166881 -8.459152 -34.645927 -17.172242 0.000000 0.000000 0.000000 28.479869 18.759786 -171.337347 98.749862 -21.417746 -20.656765 26.570365 33.853669 0.238721 0.000000 0.000000 0.000000 0.951423 -40.431327 77.398611 39.043589 61.781325 42.550370 -33.230453 6.252873 -0.208609 0.000000 0.000000 0.000000 
0.499853 0.939717 2.873159 175.286629 4.701930 177.145047 9.968690 -11.687551 -23.242728 -9.587846 -10.708769 9.312214 43.422059 -51.232418 53.483797 0.000000 0.000000 0.000000 3.759006 -6.665923 7.088158 -2.773182 -7.346502 2.091907 84.994724 -5.450808 -32.546277 0.000000 0.000000 0.000000 1.811024 -1.604355 11.123558 -3.721561 -6.880203 -13.944845 2.768508 12.743260 26.457500 -8.556289 -35.826648 -16.813447 0.000000 0.000000 0.000000 27.761808 20.633660 -178.643576 97.939433 -28.269684 -28.009188 29.767289 30.351218 0.482178 0.000000 0.000000 0.000000 -0.793583 -41.093039 83.173001 35.137112 65.566643 43.043621 -33.344111 3.928333 0.183390 0.000000 0.000000 0.000000 
0.499710 0.938532 2.870143 175.434768 3.905711 177.846868 10.432769 -12.305301 -23.946201 -9.935097 -10.967383 9.149595 45.475591 -54.729331 53.828113 0.000000 0.000000 0.000000 3.744641 -6.414400 6.262768 -2.898950 -7.953892 2.991390 90.094844 -3.381069 -33.068902 0.000000 0.000000 0.000000 1.897632 -1.638402 11.233759 -4.216931 -7.243409 -13.987200 3.247255 13.398591 26.019096 -8.625420 -36.706708 -17.151711 0.000000 0.000000 0.000000 26.239763 23.597882 171.931139 96.009196 -36.362350 -35.905053 32.363441 25.194493 0.092126 0.000000 0.000000 0.000000 -2.143183 -41.956525 90.744912 23.673451 69.991455 36.296624 -33.635881 1.408430 0.762562 0.000000 0.000000 0.000000 
0.499244 0.937298 2.866261 175.714905 3.175227 178.270627 10.251081 -12.134364 -23.534509 -8.973765 -10.461118 8.065754 47.969134 -55.639260 50.918549 0.000000 0.000000 0.000000 4.237775 -5.931841 5.583761 -3.143485 -8.445966 3.838184 93.935628 -1.451319 -33.941268 0.000000 0.000000 0.000000 2.033424 -1.700710 11.317877 -4.600399 -7.892915 -13.490879 3.885563 14.050882 25.187649 -8.835504 -37.121827 -17.806596 0.000000 0.000000 0.000000 24.548662 25.631396 164.417495 94.370822 -42.893378 -41.865219 34.383226 21.527935 -0.401229 0.000000 0.000000 0.000000 -3.816808 -42.332335 95.384734 16.249719 71.822833 32.519251 -33.705507 -0.179765 1.185775 0.000000 0.000000 0.000000 
0.498288 0.936512 2.861780 176.111338 2.465330 178.575335 10.019910 -12.040083 -23.343988 -8.310750 -10.162884 7.747049 54.272303 -58.116228 45.551735 0.000000 0.000000 0.000000 4.691491 -5.671073 5.423260 -3.439283 -8.576293 4.213689 101.296844 0.848362 -34.312122 0.000000 0.000000 0.000000 2.350150 -1.878154 11.621665 -4.626906 -7.862665 -13.753502 3.904001 13.765730 25.239130 -9.109686 -37.034488 -18.890342 0.000000 0.000000 0.000000 22.404433 28.574819 157.349498 91.728108 -48.893309 -46.404426 36.107727 17.664437 -1.047029 0.000000 0.000000 0.000000 -4.706697 -42.145347 99.620158 5.942867 73.329895 24.872901 -34.315511 -2.435254 1.872162 0.000000 0.000000 0.000000 
0.496648 0.937060 2.856938 176.232290 2.092534 178.678433 9.357245 -11.572226 -22.803803 -8.065310 -10.173129 7.403923 58.694503 -61.033597 42.875765 0.000000 0.000000 0.000000 5.042263 -5.203307 4.653659 -4.166679 -9.163110 5.705024 102.174989 1.558175 -34.612316 0.000000 0.000000 0.000000 2.142106 -2.101440 12.242311 -4.654440 -7.953155 -13.874678 4.106101 14.376596 25.166220 -9.209657 -37.713235 -18.766145 0.000000 0.000000 0.000000 20.993143 30.976282 151.501164 89.293545 -53.286552 -49.682194 37.277799 14.605934 -1.853557 0.000000 0.000000 0.000000 -5.626239 -42.809478 101.604136 2.263566 73.932184 23.235651 -35.940133 -3.850881 2.751797 0.000000 0.000000 0.000000 
0.493996 0.936778 2.851648 176.461311 1.824737 179.171814 9.007780 -11.514996 -22.927668 -8.362205 -10.425510 8.473424 71.202793 -67.887846 35.813603 0.000000 0.000000 0.000000 5.503102 -4.623940 3.665983 -5.153636 -10.139183 7.695138 105.827805 3.313036 -34.179163 0.000000 0.000000 0.000000 2.307803 -2.295851 12.624590 -4.521793 -7.365577 -14.679995 3.643398 14.439518 25.730928 -7.627228 -36.776940 -19.662818 0.000000 0.000000 0.000000 19.121016 32.239322 146.415248 86.373274 -57.282661 -51.465451 39.111079 12.848574 -2.144943 0.000000 0.000000 0.000000 -5.351040 -43.158993 105.304134 -6.969285 74.016830 14.344743 -37.575780 -5.283701 3.460416 0.000000 0.000000 0.000000 
0.490169 0.937109 2.845212 176.356690 1.668204 179.365574 8.026001 -11.385944 -23.478057 -9.545165 -11.408584 10.442030 81.389527 -75.222085 30.913626 0.000000 0.000000 0.000000 4.995238 -4.879409 3.577117 -5.352866 -11.102749 8.842402 107.397727 3.772161 -33.181247 0.000000 0.000000 0.000000 2.566450 -2.418069 12.846530 -4.687921 -7.736988 -14.399240 3.046994 15.479165 25.871827 -6.162083 -36.128271 -20.007451 0.000000 0.000000 0.000000 20.247596 31.613770 148.373039 87.744429 -55.217290 -50.871961 41.168507 15.009242 -1.550258 0.000000 0.000000 0.000000 -4.018303 -44.026327 105.340926 -8.424037 72.874776 10.991294 -41.675149 -4.424489 4.261466 0.000000 0.000000 0.000000 
0.485580 0.935373 2.837844 176.325053 1.202959 179.343326 9.000636 -12.820372 -25.471619 -13.237641 -13.727669 13.651843 87.245536 -82.068689 30.295023 0.000000 0.000000 0.000000 4.991505 -4.842178 3.314887 -7.054193 -12.445191 11.373097 114.705877 5.527095 -31.679404 0.000000 0.000000 0.000000 2.290231 -2.576284 13.296779 -4.048275 -7.129415 -15.006661 2.432858 15.870949 27.142214 -4.133838 -35.338332 -20.327022 0.000000 0.000000 0.000000 20.392871 32.320107 146.615707 86.143956 -56.354127 -51.739264 44.773772 12.119370 -2.326100 0.000000 0.000000 0.000000 -4.855723 -43.973339 110.891329 -18.768145 72.343844 2.126576 -47.143608 -7.319129 7.090424 0.000000 0.000000 0.000000 
0.480555 0.932683 2.829133 176.424137 1.249335 179.357782 12.434582 -15.799319 -28.649902 -22.037975 -18.704720 17.093562 -29.298992 -82.011072 152.113139 0.000000 0.000000 0.000000 5.238537 -4.388909 2.163901 -10.450449 -15.472187 16.203044 128.790714 6.230422 -27.154050 0.000000 0.000000 0.000000 2.284818 -2.529876 13.488404 -4.914546 -7.715197 -15.127083 4.559948 17.220569 28.110376 -3.356771 -34.412331 -21.782533 0.000000 0.000000 0.000000 13.255805 33.631983 130.280178 68.356967 -65.751805 -45.685724 49.036266 3.710505 -4.787421 0.000000 0.000000 0.000000 -6.709591 -45.389722 116.144830 -30.194445 69.711321 -4.262861 -52.174913 -11.672218 12.046989 0.000000 0.000000 0.000000 
